<svg id="Capa_1" enable-background="new 0 0 512 512" height="512" viewBox="0 0 512 512" width="512" xmlns="http://www.w3.org/2000/svg"><g><g><g><path d="m48.547 227.192v263.308c0 7.732 6.268 14 14 14h217.216v-277.308c0-7.732-6.268-14-14-14h-203.216c-7.732 0-14 6.268-14 14z" fill="#b3e59f"/></g><g><path d="m75.907 490.5v-263.308c0-7.732 6.268-14 14-14h-27.36c-7.732 0-14 6.268-14 14v263.308c0 7.732 6.268 14 14 14h27.36c-7.732 0-14-6.268-14-14z" fill="#95d6a4"/></g><g><path d="m48.547 277.126h231.216v163.44h-231.216z" fill="#eceaec"/></g><g><path d="m234.369 264.274 4.47 12.851h40.924v-49.934c0-7.732-6.268-14-14-14h-36.11v23.162c0 9.529 1.587 18.923 4.716 27.921z" fill="#95d6a4"/></g><g><path d="m279.763 440.566h-50.11v43.934c0 7.182 1.7 13.971 4.705 20h45.405z" fill="#95d6a4"/></g><g><path d="m246.775 299.943c2.579 7.414 2.579 15.581 0 22.994l-12.405 35.669c-3.13 9-4.717 18.395-4.717 27.922v54.038h50.11v-163.44h-40.924z" fill="#dad8db"/></g><g><path d="m212.987 213.192h-97.664v-37.89c0-8.284 6.716-15 15-15h67.664c8.284 0 15 6.716 15 15z" fill="#78c2a4"/></g><g><path d="m178.227 104.341h-28.144c-5.523 0-10 4.477-10 10v45.96h48.144v-45.96c0-5.522-4.477-10-10-10z" fill="#eceaec"/></g><g><path d="m168.323 104.341h-18.24c-5.523 0-10 4.477-10 10v45.96h18.24v-45.96c0-5.522 4.477-10 10-10z" fill="#dad8db"/></g><g><path d="m48.547 277.126h27.36v163.44h-27.36z" fill="#dad8db"/></g><g><path d="m154.395 160.302h-24.072c-8.284 0-15 6.716-15 15v37.89h24.072v-37.89c0-8.284 6.715-15 15-15z" fill="#68b594"/></g><g><path d="m199.661 361.675.362-.12c2.612-.862 2.612-4.557 0-5.419l-.364-.12c-15.453-5.1-27.576-17.226-32.676-32.679-.04-.122-.08-.243-.12-.363-.862-2.612-4.556-2.609-5.418.003l-.12.364c-5.1 15.453-17.222 27.575-32.675 32.675l-.364.12c-2.612.862-2.612 4.557 0 5.419l.364.12c15.453 5.1 27.577 17.226 32.676 32.679.04.122.08.243.12.363.862 2.612 4.556 2.609 5.418-.003l.12-.362c5.1-15.454 17.223-27.577 32.677-32.677z" fill="#ffc269"/></g><g><path d="m402.885 104.342h-87.665v-81.842c0-8.284 6.716-15 15-15h57.664c8.284 0 15 6.716 15 15v81.842z" fill="#eceaec"/></g><g><path d="m354.293 7.5h-24.073c-8.284 0-15 6.716-15 15v81.841h24.072v-81.841c.001-8.284 6.716-15 15.001-15z" fill="#dad8db"/></g><g><path d="m423.453 104.342h-128.8c-22.091 0-40 17.909-40 40v92.012c0 6.71 1.125 13.372 3.33 19.709l12.405 35.669c4.439 12.765 4.439 26.654 0 39.419l-12.405 35.669c-2.204 6.337-3.329 13-3.329 19.709v97.971c0 11.046 8.954 20 20 20h168.8c11.046 0 20-8.954 20-20v-97.972c0-6.71-1.125-13.372-3.33-19.709l-12.405-35.669c-4.439-12.765-4.439-26.654 0-39.419l12.405-35.669c2.204-6.337 3.33-13 3.33-19.709v-92.012c-.001-22.091-17.91-39.999-40.001-39.999z" fill="#e5646e"/></g><g><path d="m279.763 484.5v-97.972c0-6.71 1.125-13.372 3.33-19.709l12.405-35.669c4.439-12.765 4.439-26.654 0-39.419l-12.405-35.669c-2.204-6.337-3.33-13-3.33-19.709v-92.012c0-22.091 17.909-40 40-40h-25.11c-22.091 0-40 17.909-40 40v92.012c0 6.71 1.125 13.372 3.33 19.709l12.405 35.669c4.439 12.765 4.439 26.654 0 39.419l-12.405 35.669c-2.204 6.337-3.33 13-3.33 19.709v97.972c0 11.046 8.954 20 20 20h25.11c-11.046 0-20-8.954-20-20z" fill="#db4655"/></g><g><circle cx="359.053" cy="216.223" fill="#ffd3d6" r="60.903"/></g><g><path d="m390.776 218.751.324-.107c2.334-.77 2.334-4.071 0-4.842l-.325-.107c-13.807-4.556-24.638-15.39-29.195-29.197-.036-.109-.072-.217-.107-.324-.77-2.334-4.071-2.331-4.841.002l-.107.325c-4.556 13.807-15.387 24.637-29.193 29.193l-.325.107c-2.334.77-2.334 4.071 0 4.842l.325.107c13.807 4.556 24.638 15.39 29.195 29.197.036.109.072.217.107.324.77 2.334 4.071 2.331 4.841-.002l.107-.324c4.555-13.807 15.386-24.638 29.194-29.194z" fill="#ffc269"/></g><g><path d="m105.663 116.181.25-.082c1.801-.594 1.801-3.142 0-3.736l-.251-.083c-10.655-3.516-19.013-11.877-22.53-22.532-.028-.084-.055-.167-.083-.25-.594-1.801-3.141-1.799-3.736.002l-.083.251c-3.516 10.655-11.874 19.013-22.529 22.529l-.251.083c-1.801.594-1.801 3.142 0 3.736l.251.083c10.655 3.516 19.014 11.877 22.53 22.532.028.084.055.167.083.25.594 1.801 3.141 1.799 3.736-.002l.082-.25c3.517-10.656 11.875-19.015 22.531-22.531z" fill="#fee8c7"/></g><g><path d="m276.116 61.245.362-.12c2.612-.862 2.612-4.557 0-5.419l-.364-.12c-15.453-5.1-27.576-17.226-32.676-32.679-.04-.122-.08-.243-.12-.363-.862-2.612-4.556-2.609-5.418.003l-.12.364c-5.1 15.453-17.222 27.575-32.675 32.675l-.364.12c-2.612.862-2.612 4.557 0 5.419l.364.12c15.453 5.1 27.577 17.226 32.676 32.679.04.122.08.243.12.363.862 2.612 4.556 2.609 5.418-.003l.12-.362c5.1-15.455 17.222-27.577 32.677-32.677z" fill="#fee8c7"/></g></g><g><path d="m221.16 497h-158.613c-3.584 0-6.5-2.916-6.5-6.5v-42.435h161.873c4.142 0 7.5-3.357 7.5-7.5s-3.358-7.5-7.5-7.5h-161.873v-85.101c0-4.143-3.358-7.5-7.5-7.5s-7.5 3.357-7.5 7.5v142.536c0 11.855 9.645 21.5 21.5 21.5h158.613c4.142 0 7.5-3.357 7.5-7.5s-3.358-7.5-7.5-7.5z"/><path d="m126.3 368.798c13.137 4.335 23.569 14.768 27.9 27.895l.124.375c1.403 4.251 5.354 7.107 9.83 7.107 4.478 0 8.429-2.857 9.832-7.108l.12-.363c4.335-13.136 14.765-23.567 27.901-27.904l.368-.121c4.252-1.403 7.109-5.355 7.108-9.834 0-4.478-2.858-8.428-7.107-9.829l-.365-.12c-13.137-4.335-23.568-14.768-27.9-27.895l-.124-.376c-1.403-4.251-5.354-7.107-9.83-7.107-4.478 0-8.429 2.857-9.833 7.112l-.12.362c-4.335 13.136-14.766 23.567-27.901 27.902l-.364.12c-4.252 1.402-7.11 5.353-7.111 9.83 0 4.479 2.856 8.431 7.108 9.834zm37.855-33.26c5.394 9.801 13.508 17.915 23.307 23.309-9.799 5.393-17.915 13.509-23.308 23.308-5.394-9.801-13.508-17.915-23.308-23.309 9.801-5.393 17.915-13.509 23.309-23.308z"/><path d="m463.453 167.802c4.143 0 7.5-3.357 7.5-7.5v-15.96c0-26.191-21.309-47.5-47.5-47.5h-13.068v-74.342c0-12.406-10.094-22.5-22.5-22.5h-57.665c-12.406 0-22.5 10.094-22.5 22.5v74.342h-13.068c-26.191 0-47.5 21.309-47.5 47.5v61.35h-26.666v-30.39c0-12.406-10.093-22.5-22.5-22.5h-2.26v-38.46c0-9.649-7.851-17.5-17.5-17.5h-28.144c-9.649 0-17.5 7.851-17.5 17.5v38.46h-2.26c-12.407 0-22.5 10.094-22.5 22.5v30.39h-45.275c-11.855 0-21.5 9.645-21.5 21.5v83.169c0 4.143 3.358 7.5 7.5 7.5s7.5-3.357 7.5-7.5v-25.734h203.928l3.328 9.569c3.868 11.121 3.868 23.37 0 34.491l-12.405 35.668c-2.485 7.147-3.746 14.607-3.746 22.174v97.971c0 15.163 12.336 27.5 27.5 27.5h168.801c15.163 0 27.5-12.337 27.5-27.5v-97.972c0-7.565-1.261-15.025-3.746-22.174l-12.405-35.668c-3.868-11.121-3.868-23.37 0-34.491l12.405-35.669c2.485-7.147 3.746-14.607 3.746-22.173v-33.873c0-4.143-3.357-7.5-7.5-7.5s-7.5 3.357-7.5 7.5v33.873c0 5.884-.98 11.687-2.914 17.245l-12.405 35.669c-4.973 14.299-4.973 30.048 0 44.347l12.405 35.668c1.934 5.56 2.914 11.362 2.914 17.246v97.972c0 6.893-5.607 12.5-12.5 12.5h-168.801c-6.893 0-12.5-5.607-12.5-12.5v-97.972c0-5.885.98-11.688 2.914-17.246l12.405-35.668c4.973-14.299 4.973-30.048 0-44.347l-12.405-35.669c-1.934-5.558-2.914-11.36-2.914-17.245v-92.012c0-17.921 14.58-32.5 32.5-32.5h128.801c17.921 0 32.5 14.579 32.5 32.5v15.96c0 4.143 3.357 7.501 7.5 7.501zm-315.87-53.46c0-1.379 1.122-2.5 2.5-2.5h28.144c1.378 0 2.5 1.121 2.5 2.5v38.46h-33.144zm-24.76 60.96c0-4.136 3.364-7.5 7.5-7.5h67.665c4.136 0 7.5 3.364 7.5 7.5v30.39h-82.665zm-66.776 94.324v-42.435c0-3.584 2.916-6.5 6.5-6.5h184.605v15.662c0 7.566 1.26 15.026 3.746 22.173l3.86 11.1zm274.173-254.626h57.664c4.136 0 7.5 3.364 7.5 7.5v35.222h-72.664v-35.222c0-4.136 3.365-7.5 7.5-7.5zm-7.5 57.722h72.664v24.12h-72.664z"/><path d="m393.432 206.674-.308-.101c-11.498-3.795-20.628-12.926-24.424-24.428l-.105-.32c-1.36-4.126-5.194-6.899-9.539-6.9-.001 0-.001 0-.002 0-4.346 0-8.182 2.772-9.544 6.898l-.108.327c-3.794 11.498-12.924 20.628-24.424 24.423l-.324.106c-4.126 1.362-6.898 5.197-6.898 9.543s2.772 8.181 6.897 9.542l.327.108c11.498 3.795 20.628 12.926 24.43 24.447l.101.304c1.363 4.126 5.197 6.897 9.542 6.897 4.346-.001 8.181-2.773 9.545-6.906l.104-.318c3.795-11.499 12.926-20.629 24.425-24.424.005-.002.01-.003.015-.005l.307-.102c4.127-1.361 6.901-5.195 6.901-9.542 0-4.345-2.772-8.181-6.918-9.549zm-34.38 28.757c-4.643-7.929-11.279-14.565-19.206-19.208 7.929-4.642 14.564-11.278 19.206-19.206 4.643 7.927 11.277 14.562 19.209 19.206-7.928 4.641-14.565 11.278-19.209 19.208z"/><path d="m427.456 216.223c0-37.717-30.686-68.402-68.403-68.402s-68.403 30.686-68.403 68.402c0 37.718 30.686 68.403 68.403 68.403s68.403-30.686 68.403-68.403zm-68.404 53.403c-29.446 0-53.403-23.957-53.403-53.403s23.957-53.402 53.403-53.402 53.403 23.956 53.403 53.402-23.956 53.403-53.403 53.403z"/><path d="m399.719 317.02h-81.334c-4.143 0-7.5 3.357-7.5 7.5s3.357 7.5 7.5 7.5h81.334c4.143 0 7.5-3.357 7.5-7.5s-3.357-7.5-7.5-7.5z"/><path d="m399.719 354.46h-81.334c-4.143 0-7.5 3.357-7.5 7.5s3.357 7.5 7.5 7.5h81.334c4.143 0 7.5-3.357 7.5-7.5s-3.357-7.5-7.5-7.5z"/><path d="m399.719 391.9h-81.334c-4.143 0-7.5 3.357-7.5 7.5s3.357 7.5 7.5 7.5h81.334c4.143 0 7.5-3.357 7.5-7.5s-3.357-7.5-7.5-7.5z"/><path d="m54.096 123.22.256.084c8.36 2.759 14.998 9.397 17.761 17.769l.08.241c1.283 3.887 4.895 6.499 8.988 6.499 4.094 0 7.708-2.612 8.993-6.505l.081-.245c2.759-8.359 9.395-14.997 17.752-17.758l.257-.084c3.887-1.284 6.5-4.896 6.5-8.99s-2.612-7.706-6.496-8.989l-.256-.084c-8.359-2.759-14.998-9.397-17.749-17.731l-.092-.278c-1.283-3.888-4.896-6.5-8.99-6.499-4.095 0-7.708 2.613-8.988 6.496l-.084.254c-2.759 8.36-9.397 14.998-17.762 17.758l-.248.082c-3.887 1.284-6.499 4.896-6.499 8.99s2.612 7.707 6.496 8.99zm27.086-20.601c3.09 4.572 7.04 8.522 11.61 11.611-4.571 3.09-8.521 7.04-11.611 11.612-3.09-4.573-7.039-8.522-11.611-11.612 4.573-3.089 8.523-7.039 11.612-11.611z"/><path d="m202.389 68.247.365.12c13.137 4.335 23.568 14.768 27.908 27.92l.116.351c1.403 4.251 5.353 7.106 9.829 7.106 4.478 0 8.429-2.856 9.833-7.108l.12-.363c4.335-13.136 14.763-23.566 27.898-27.903l.37-.122c4.252-1.403 7.108-5.354 7.108-9.832 0-4.477-2.856-8.428-7.11-9.832l-.362-.119c-13.137-4.335-23.569-14.768-27.9-27.895l-.124-.376c-1.403-4.251-5.354-7.107-9.83-7.106-4.478 0-8.429 2.857-9.833 7.111l-.12.362c-4.335 13.137-14.766 23.568-27.901 27.902l-.367.121c-4.251 1.403-7.107 5.354-7.107 9.831 0 4.478 2.856 8.429 7.107 9.832zm38.221-33.14c5.394 9.8 13.509 17.915 23.308 23.308-9.8 5.395-17.915 13.509-23.308 23.309-5.394-9.8-13.508-17.915-23.308-23.308 9.8-5.394 17.914-13.509 23.308-23.309z"/></g></g></svg>