<svg id="Layer_1" enable-background="new 0 0 512 512" height="512" viewBox="0 0 512 512" width="512" xmlns="http://www.w3.org/2000/svg"><g><g><path clip-rule="evenodd" d="m67.299 104.052c-65.254 40.565-59.755 182.614-32.769 286.621l135.469 18.398 84.7-243.873c-8.135-27.129-21.43-48.814-41.273-61.146l-73.22-10.007z" fill="#a7e9a6" fill-rule="evenodd"/></g><g><path clip-rule="evenodd" d="m34.53 390.673c10.828 41.642 25.087 77.19 39.629 97.657 7.143 10.035 12.217 15.875 29.396 16.158h2.806 34.016 33.988 2.806c.907 0 1.786-.028 2.636-.085-3.997-.595 3.487-5.868 3.912-10.007l7.002-66.928-23.443-36.795z" fill="#a7e9a6" fill-rule="evenodd"/></g><g><path clip-rule="evenodd" d="m329.79 282.981-12.784 18.653 6.378 24.634 72.511 10.035 77.216-10.035c14.343-31.494-14.882-70.273-35.037-80.393-8.05 40.451-62.901 34.838-108.284 37.106z" fill="#ffe07d" fill-rule="evenodd"/></g><g><path clip-rule="evenodd" d="m79.63 12.206v51.026l60.747 11.424 60.719-11.424v-51.026c0-2.58-2.126-4.706-4.734-4.706h-111.998c-2.608 0-4.734 2.126-4.734 4.706z" fill="#365e7d" fill-rule="evenodd"/></g><g><path clip-rule="evenodd" d="m79.63 63.231c-6.775 0-12.331 5.556-12.331 12.36v28.461h146.127v-28.461c0-6.803-5.556-12.36-12.331-12.36z" fill="#f9f6f6" fill-rule="evenodd"/></g><g><path clip-rule="evenodd" d="m473.111 326.268h-149.727l-10.545 17.547 5.698 15.166h168.918v-29.538c0-1.758-1.417-3.175-3.146-3.175z" fill="#f9f6f6" fill-rule="evenodd"/></g><g><path clip-rule="evenodd" d="m318.536 358.981-10.12 68.488v43.145h142.386c26.844-11.934 45.667-38.864 45.667-69.99v-36.738c0-2.693-2.183-4.904-4.904-4.904h-4.11-168.919z" fill="#9dc6fb" fill-rule="evenodd"/></g><g><path clip-rule="evenodd" d="m420.585 470.613h-142.386v25.541c0 4.167-3.09 7.625-7.058 8.249.482.057.964.085 1.474.085h136.745c6.18 0 11.225-5.046 11.225-11.226z" fill="#365e7d" fill-rule="evenodd"/></g><g><path clip-rule="evenodd" d="m429.003 264.102c13.606 16.838 23.471 41.132 13.89 62.166h11.197 19.021c14.343-31.494-14.882-70.273-35.037-80.393-1.502 7.568-4.648 13.521-9.071 18.227z" fill="#ffd064" fill-rule="evenodd"/></g><g><path clip-rule="evenodd" d="m457.237 329.442v29.538h4.139 26.079v-29.538c0-1.758-1.417-3.175-3.146-3.175h-11.197-19.022c1.361 0 2.523.879 2.976 2.098.114.34.171.681.171 1.077z" fill="#dddaec" fill-rule="evenodd"/></g><g><path clip-rule="evenodd" d="m466.279 363.885v36.738c0 31.126-18.851 58.056-45.695 69.99h30.218c26.844-11.934 45.667-38.864 45.667-69.99v-36.738c0-2.693-2.183-4.904-4.904-4.904h-4.11-26.079c2.692 0 4.903 2.211 4.903 4.904z" fill="#80b4fb" fill-rule="evenodd"/></g><g><path clip-rule="evenodd" d="m420.585 470.613v22.65c0 6.18-5.046 11.226-11.225 11.226h30.218c6.18 0 11.225-5.046 11.225-11.226v-22.65z" fill="#2b4d66" fill-rule="evenodd"/></g><g><path clip-rule="evenodd" d="m134.821 171.377 4.876 32.968 101.113 37.702 100.603-37.702 4.876-32.968c.482-3.232-.822-6.18-5.868-6.18-66.558 0-133.145 0-199.731 0-5.018 0-6.351 2.948-5.869 6.18z" fill="#f9f6f6" fill-rule="evenodd"/></g><g><path clip-rule="evenodd" d="m172.721 427.468v68.686c0 4.167 3.09 7.654 7.087 8.249.397.057.822.085 1.247.085h119.028c.425 0 .85-.028 1.247-.085 3.997-.624 7.087-4.082 7.087-8.249v-25.541-43.145c-22.252 0-40.252-26.845-62.505-26.845-22.989 0-50.202 26.845-73.191 26.845z" fill="#f9f6f6" fill-rule="evenodd"/></g><g><path clip-rule="evenodd" d="m143.552 230.34 23.726 160.333 5.443 36.795h135.696l10.12-68.488 4.847-32.713 6.406-43.287 11.622-78.636h-78.776-122.94z" fill="#365e7d" fill-rule="evenodd"/></g><g><path clip-rule="evenodd" d="m240.554 275.327c-21.147 0-38.325 17.49-38.325 39.091s17.178 39.12 38.325 39.12c5.102 0 9.95-1.021 14.372-2.835l.198-.085c10.403-4.366 18.539-13.295 21.969-24.35 1.162-3.714 1.786-7.711 1.786-11.849 0-5.443-1.077-10.63-3.061-15.336-2.608-6.208-6.718-11.594-11.906-15.676-6.463-5.075-14.57-8.08-23.358-8.08z" fill="#fe93d3" fill-rule="evenodd"/></g><g><path clip-rule="evenodd" d="m274.457 504.488h25.625c.425 0 .85-.028 1.247-.085 3.997-.624 7.087-4.082 7.087-8.249v-25.541-43.145h-25.682v43.145 25.541c0 4.167-3.061 7.625-7.058 8.249-.397.057-.822.085-1.219.085z" fill="#dddaec" fill-rule="evenodd"/></g><g><path clip-rule="evenodd" d="m320.634 171.377-4.876 32.968h25.654l4.876-32.968c.482-3.232-.822-6.18-5.868-6.18h-25.654c5.018 0 6.35 2.948 5.868 6.18z" fill="#dddaec" fill-rule="evenodd"/></g><g><path clip-rule="evenodd" d="m314.256 214.522-10.148 68.459-.397 2.806-6.01 40.481-4.818 32.713-8.816 59.586-1.333 8.901h25.683l10.119-68.487 4.848-32.713 6.406-43.287 11.622-78.636h-25.654z" fill="#2b4d66" fill-rule="evenodd"/></g><g><path clip-rule="evenodd" d="m253.225 314.418c0 4.139-.624 8.136-1.814 11.849-3.43 11.056-11.537 19.985-21.969 24.35l-.17.085c-.51.198-1.02.397-1.559.595 4.025 1.446 8.334 2.239 12.841 2.239 5.102 0 9.95-1.021 14.372-2.835l.198-.085c10.403-4.366 18.539-13.295 21.969-24.35 1.162-3.714 1.786-7.711 1.786-11.849 0-5.443-1.077-10.63-3.061-15.336-2.608-6.208-6.718-11.594-11.906-15.676-6.463-5.074-14.57-8.079-23.358-8.079-4.507 0-8.816.794-12.841 2.239 3.827 1.389 7.37 3.373 10.517 5.84 5.187 4.082 9.326 9.468 11.934 15.676 1.956 4.707 3.061 9.895 3.061 15.337z" fill="#fe4eb7" fill-rule="evenodd"/></g><g><path clip-rule="evenodd" d="m213.2 464.858c-2.693 0-4.904 2.211-4.904 4.904v16.073 18.653h64.517v-34.726c0-2.693-2.211-4.904-4.904-4.904h-47.821z" fill="#d0cee7" fill-rule="evenodd"/></g><g><path clip-rule="evenodd" d="m160.673 12.206v51.026h-.028.028 40.394.028v-51.026c0-2.58-2.126-4.706-4.734-4.706h-40.394c2.58 0 4.706 2.126 4.706 4.706z" fill="#2b4d66" fill-rule="evenodd"/></g><g><path clip-rule="evenodd" d="m171.02 68.872c1.276 1.956 2.013 4.252 2.013 6.718v28.461h40.394v-28.46c0-6.803-5.556-12.36-12.331-12.36h-.028-40.394c4.336 0 8.163 2.268 10.346 5.641z" fill="#dddaec" fill-rule="evenodd"/></g><g><path clip-rule="evenodd" d="m173.033 104.052c19.814 12.331 33.109 34.017 41.245 61.146h26.277 14.145c-8.135-27.129-21.43-48.814-41.273-61.146z" fill="#7fdbae" fill-rule="evenodd"/></g><g><path clip-rule="evenodd" d="m371.205 391.892c-12.388 0-22.451 10.262-22.451 22.905s10.063 22.905 22.451 22.905c12.387 0 22.422-10.262 22.422-22.905s-10.035-22.905-22.422-22.905z" fill="#ffe07d" fill-rule="evenodd"/></g><g><path clip-rule="evenodd" d="m15.963 230.34c-2.353 51.961 5.641 110.499 18.567 160.333h132.748l-23.726-160.333z" fill="#f9f6f6" fill-rule="evenodd"/></g><g><path d="m240.554 267.827c-25.268 0-45.824 20.901-45.824 46.591 0 25.706 20.557 46.62 45.824 46.62 25.269 0 45.825-20.914 45.825-46.62 0-25.69-20.556-46.591-45.825-46.591zm0 78.211c-16.996 0-30.824-14.185-30.824-31.62 0-17.419 13.828-31.591 30.824-31.591 16.997 0 30.825 14.172 30.825 31.591 0 17.436-13.828 31.62-30.825 31.62z"/><path d="m371.205 384.392c-16.515 0-29.95 13.64-29.95 30.405s13.436 30.405 29.95 30.405c16.499 0 29.922-13.64 29.922-30.405s-13.423-30.405-29.922-30.405zm0 45.81c-8.243 0-14.95-6.911-14.95-15.405s6.707-15.405 14.95-15.405c8.228 0 14.922 6.911 14.922 15.405s-6.695 15.405-14.922 15.405z"/><path d="m494.955 351.963v-22.521c0-5.886-4.776-10.675-10.646-10.675h-.965c2.779-13.69.006-29.03-8.212-44.272-8.269-15.333-21.493-29.199-33.691-35.324-2.094-1.05-4.556-1.063-6.658-.036-2.104 1.028-3.606 2.979-4.063 5.275-5.3 26.647-35.382 29.342-80.67 30.413-3.8.09-7.669.185-11.523.307l15.18-102.647c.599-4.011-.364-7.721-2.712-10.445-1.707-1.981-4.928-4.342-10.573-4.342h-80.256c-8.732-26.22-21.908-45.581-39.238-57.674v-24.431c0-8.292-5.105-15.406-12.33-18.375v-45.01c0-6.73-5.488-12.206-12.234-12.206h-112c-6.745 0-12.234 5.476-12.234 12.206v45.011c-7.225 2.969-12.331 10.082-12.331 18.375v24.438c-22.525 15.707-37.931 43.485-45.813 82.67-9.372 46.596-7.636 107.891 4.891 172.593 11.359 58.674 29.74 110.032 49.169 137.382 8.265 11.634 15.371 19.325 36.921 19.325.477 0 .96-.003 1.45-.011h333.159c10.325 0 18.726-8.4 18.726-18.726v-17.949c27.893-14.402 45.666-43.194 45.666-74.691v-36.738c0-5.664-3.819-10.442-9.013-11.922zm-144.551-62.143c37.016-.875 78.514-1.854 91.864-32.275 15.676 12.57 32.116 39.254 25.651 61.223h-135.846l4.222-28.552c4.68-.169 9.447-.286 14.109-.396zm-263.274-274.82h106.466v40.731h-106.466zm-12.331 60.591c0-2.634 2.212-4.86 4.831-4.86h121.466c2.618 0 4.83 2.226 4.83 4.86v20.961h-131.127zm-46.108 110.065c7.23-35.943 20.959-60.858 40.819-74.104h141.662c14.16 9.438 25.268 24.917 33.098 46.146h-103.58c-5.636 0-8.856 2.363-10.565 4.346-2.352 2.727-3.317 6.434-2.722 10.432l7.454 50.365h-110.98c.877-12.913 2.442-25.393 4.814-37.185zm-5.52 52.184h113.905l21.509 145.333h-118.044c-11.305-45.201-18.662-97.515-17.37-145.333zm83.19 259.148c-.04 0-.08 0-.12.001-16.559.262-19.691-4.169-25.967-13.002-12.464-17.546-25.371-48.589-35.768-85.814h116.298l4.417 29.846v68.135c0 .281.028.556.042.834zm158.952 0h-49.517v-24.63h49.517zm35.603-.834c0 .325-.221.627-.514.761-.007.003-.015.004-.022.007-.094.04-.194.065-.298.065h-19.77v-27.226c0-6.84-5.564-12.404-12.404-12.404h-54.708c-6.839 0-12.403 5.564-12.403 12.404v27.226h-19.741c-.452 0-.834-.382-.834-.834v-61.186h120.695v61.187zm10.159-137.925-9.13 61.74h-122.752l-30.798-208.124h73.537c4.143 0 7.5-3.358 7.5-7.5s-3.357-7.5-7.5-7.5h-75.757l-3.573-24.147h112.043c.008 0 .016.002.024.002.009 0 .018-.002.027-.002h83.816l-3.571 24.147h-78.398c-4.143 0-7.5 3.358-7.5 7.5s3.357 7.5 7.5 7.5h76.18l-21.6 146.063c-.016.107-.038.212-.048.321zm132.227 135.034c0 2.054-1.671 3.726-3.726 3.726h-123.682c.015-.276.022-.555.022-.834v-18.042h127.386zm45.666-92.64c0 26.709-15.569 51.067-39.801 62.49h-133.251v-35.095l9.1-61.537h59.624c4.143 0 7.5-3.358 7.5-7.5s-3.357-7.5-7.5-7.5h-57.406l2.619-17.713h150.1v17.713h-60.702c-4.143 0-7.5 3.358-7.5 7.5s3.357 7.5 7.5 7.5h69.716v34.142z"/></g></g></svg>